<svg width="50" height="50" viewBox="0 0 50 50" fill="none" xmlns="http://www.w3.org/2000/svg">
<circle cx="25" cy="25" r="25" fill="#C4C4C4"/>
<path d="M24.8912 26.1648C24.9223 26.1648 24.9534 26.1648 24.9906 26.1648C25.0031 26.1648 25.0155 26.1648 25.0279 26.1648C25.0466 26.1648 25.0714 26.1648 25.09 26.1648C26.9103 26.1338 28.3827 25.4939 29.4698 24.27C31.8616 21.5738 31.464 16.9518 31.4205 16.5107C31.2652 13.1994 29.6997 11.6152 28.4075 10.876C27.4446 10.323 26.3201 10.0248 25.0652 10H25.0217C25.0155 10 25.0031 10 24.9969 10H24.9596C24.27 10 22.9157 10.1118 21.6173 10.8511C20.3127 11.5904 18.7223 13.1746 18.567 16.5107C18.5235 16.9518 18.1259 21.5738 20.5177 24.27C21.5986 25.4939 23.071 26.1338 24.8912 26.1648ZM20.2257 16.666C20.2257 16.6473 20.2319 16.6287 20.2319 16.6163C20.4369 12.1619 23.5991 11.6836 24.9534 11.6836H24.9782C24.9906 11.6836 25.0093 11.6836 25.0279 11.6836C26.7053 11.7209 29.5568 12.4042 29.7494 16.6163C29.7494 16.6349 29.7494 16.6536 29.7556 16.666C29.7618 16.7095 30.1967 20.9339 28.2211 23.158C27.4384 24.0402 26.3947 24.475 25.0217 24.4875C25.0093 24.4875 25.0031 24.4875 24.9906 24.4875C24.9782 24.4875 24.972 24.4875 24.9596 24.4875C23.5928 24.475 22.5429 24.0402 21.7664 23.158C19.797 20.9464 20.2195 16.7033 20.2257 16.666Z" fill="white"/>
<path d="M37.7573 33.831C37.7573 33.8248 37.7573 33.8186 37.7573 33.8123C37.7573 33.7626 37.751 33.7129 37.751 33.657C37.7138 32.427 37.633 29.5506 34.9368 28.6311C34.9182 28.6249 34.8933 28.6187 34.8747 28.6125C32.0728 27.8981 29.7432 26.2828 29.7183 26.2642C29.3394 25.9971 28.8175 26.0902 28.5504 26.4692C28.2832 26.8482 28.3764 27.37 28.7554 27.6371C28.861 27.7117 31.3336 29.4326 34.4274 30.2277C35.8749 30.7434 36.0364 32.2903 36.0799 33.7067C36.0799 33.7626 36.0799 33.8123 36.0861 33.862C36.0923 34.4212 36.055 35.2847 35.9556 35.7817C34.9492 36.3532 31.0043 38.3288 25.0031 38.3288C19.0267 38.3288 15.0569 36.347 14.0443 35.7755C13.9449 35.2785 13.9014 34.415 13.9138 33.8558C13.9138 33.8061 13.92 33.7564 13.92 33.7005C13.9635 32.2841 14.125 30.7372 15.5725 30.2215C18.6663 29.4263 21.1389 27.6993 21.2445 27.6309C21.6235 27.3638 21.7167 26.842 21.4495 26.463C21.1824 26.084 20.6605 25.9908 20.2816 26.258C20.2567 26.2766 17.9395 27.8919 15.1252 28.6063C15.1004 28.6125 15.0818 28.6187 15.0631 28.6249C12.3669 29.5506 12.2861 32.427 12.2489 33.6508C12.2489 33.7067 12.2489 33.7564 12.2427 33.8061C12.2427 33.8123 12.2427 33.8186 12.2427 33.8248C12.2364 34.1478 12.2302 35.8065 12.5595 36.639C12.6216 36.8005 12.7334 36.9372 12.8825 37.0304C13.0689 37.1547 17.5357 40 25.0093 40C32.4829 40 36.9496 37.1484 37.136 37.0304C37.2789 36.9372 37.3969 36.8005 37.4591 36.639C37.7697 35.8128 37.7635 34.154 37.7573 33.831Z" fill="white"/>
</svg>
