<svg xmlns="http://www.w3.org/2000/svg">
    <defs>
        <symbol id="calendar" viewBox="0 0 45 45" fill="none">
            <path d="M40.6055 2.72461H36.7383V0.900879C36.7383 0.415635 36.3437 0.0219727 35.8594 0.0219727C35.3751 0.0219727 34.9805 0.415635 34.9805 0.900879V2.72461H27.8174V0.878906C27.8174 0.393662 27.4228 0 26.9385 0C26.4542 0 26.0596 0.393662 26.0596 0.878906V2.72461H18.9404V0.878906C18.9404 0.393662 18.5458 0 18.0615 0C17.5772 0 17.1826 0.393662 17.1826 0.878906V2.72461H10.0274V0.900879C10.0274 0.415635 9.63281 0.0219727 9.14853 0.0219727C8.66338 0.0219727 8.26963 0.415635 8.26963 0.900879V2.72461H4.39453C1.97139 2.72461 0 4.696 0 7.11914V40.6055C0 43.0286 1.97139 45 4.39453 45H40.6055C43.0286 45 45 43.0286 45 40.6055V7.11914C45 4.696 43.0286 2.72461 40.6055 2.72461ZM43.2422 40.6055C43.2422 42.0594 42.0594 43.2422 40.6055 43.2422H4.39453C2.94064 43.2422 1.75781 42.0594 1.75781 40.6055V17.7539H43.2422V40.6055ZM43.2422 15.9961H1.75781V14.2383H43.2422V15.9961ZM43.2422 12.4805H1.75781V7.11914C1.75781 5.66525 2.94064 4.48242 4.39453 4.48242H8.26963V6.17432C8.26963 6.65859 8.66338 7.05322 9.14853 7.05322C9.63281 7.05322 10.0274 6.65859 10.0274 6.17432V4.48242H17.1826V6.15234C17.1826 6.63662 17.5772 7.03125 18.0615 7.03125C18.5458 7.03125 18.9404 6.63662 18.9404 6.15234V4.48242H26.0596V6.15234C26.0596 6.63662 26.4542 7.03125 26.9385 7.03125C27.4228 7.03125 27.8174 6.63662 27.8174 6.15234V4.48242H34.9805V6.17432C34.9805 6.65859 35.3751 7.05322 35.8594 7.05322C36.3437 7.05322 36.7383 6.65859 36.7383 6.17432V4.48242H40.6055C42.0594 4.48242 43.2422 5.66525 43.2422 7.11914V12.4805Z" fill="currentColor"/>
            <path d="M35.8594 8.81104C35.3751 8.81104 34.9805 9.20566 34.9805 9.68994C34.9805 10.1742 35.3751 10.5688 35.8594 10.5688C36.3437 10.5688 36.7383 10.1742 36.7383 9.68994C36.7383 9.20566 36.3437 8.81104 35.8594 8.81104Z" fill="currentColor"/>
            <path d="M26.9385 8.78906C26.4542 8.78906 26.0596 9.18369 26.0596 9.66797C26.0596 10.1522 26.4542 10.5469 26.9385 10.5469C27.4228 10.5469 27.8174 10.1522 27.8174 9.66797C27.8174 9.18369 27.4228 8.78906 26.9385 8.78906Z" fill="currentColor"/>
            <path d="M18.0615 8.78906C17.5772 8.78906 17.1826 9.18369 17.1826 9.66797C17.1826 10.1522 17.5772 10.5469 18.0615 10.5469C18.5458 10.5469 18.9404 10.1522 18.9404 9.66797C18.9404 9.18369 18.5458 8.78906 18.0615 8.78906Z" fill="currentColor"/>
            <path d="M9.14868 8.81104C8.66353 8.81104 8.26978 9.20566 8.26978 9.68994C8.26978 10.1742 8.66353 10.5688 9.14868 10.5688C9.63296 10.5688 10.0276 10.1742 10.0276 9.68994C10.0276 9.20566 9.63296 8.81104 9.14868 8.81104Z" fill="currentColor"/>
            <path d="M14.6972 36.7566C15.4857 37.5115 16.641 37.8886 18.1641 37.8886C19.6059 37.8886 20.7749 37.5247 21.6713 36.797C22.8105 35.8722 23.0156 34.3944 23.0156 33.0168C23.0156 31.5209 22.3299 30.5035 20.9591 29.9644C21.4623 29.7364 21.8533 29.3236 22.1322 28.7259C22.4111 28.1286 22.5508 27.4271 22.5508 26.6217C22.5508 24.201 21.1221 22.9903 18.2652 22.9903C17.4566 22.9903 16.7491 23.1054 16.1427 23.3352C15.5362 23.5652 15.0744 23.8631 14.7579 24.2282C14.4412 24.5936 14.2086 24.9692 14.0604 25.3544C13.9121 25.7402 13.8382 26.129 13.8382 26.5212C13.8382 26.9637 13.9222 27.2619 14.0908 27.4161C14.2592 27.5702 14.6265 27.6473 15.1926 27.6473C16.028 27.6473 16.4459 27.3122 16.4459 26.6419C16.4459 25.744 17.0453 25.2948 18.245 25.2948C19.4307 25.2948 20.0239 25.8849 20.0239 27.0642C20.0239 27.8552 19.8632 28.381 19.5423 28.6427C19.2214 28.9042 18.7665 29.0346 18.1784 29.0346C17.6565 29.0346 17.396 29.3782 17.396 30.0655C17.396 30.7528 17.6518 31.0965 18.1641 31.0965C18.7546 31.0965 19.4164 31.1907 19.8674 31.6082C20.6478 32.3308 20.6169 34.3239 19.8724 35.0686C19.5288 35.4123 18.9795 35.5841 18.225 35.5841C17.5781 35.5841 17.0658 35.4527 16.6886 35.1899C16.3111 34.9271 16.1226 34.5668 16.1226 34.1084C16.1226 33.7717 16.0282 33.5323 15.8396 33.3908C15.6508 33.2493 15.2938 33.1785 14.7683 33.1785C14.31 33.1785 13.9865 33.2528 13.798 33.4008C13.6091 33.5493 13.5149 33.8188 13.5149 34.2095C13.5146 35.153 13.9088 36.002 14.6972 36.7566Z" fill="currentColor"/>
            <path d="M25.7648 26.9727C25.9534 26.9727 26.1151 26.912 26.25 26.7907L26.8969 26.1439V36.9385C26.8969 37.1947 27.0248 37.3968 27.2809 37.5449C27.5368 37.6934 27.8469 37.7673 28.2108 37.7673C28.561 37.7673 28.8679 37.6934 29.1306 37.5449C29.3934 37.3968 29.5248 37.1947 29.5248 36.9385V23.7988C29.5248 23.5563 29.4035 23.3541 29.1609 23.1925C28.9183 23.0309 28.6486 22.9499 28.3523 22.9499C28.1501 22.9499 27.9682 23.0175 27.8065 23.1521L25.4211 24.9714C25.0841 25.1871 24.9158 25.504 24.9158 25.9215C24.9158 26.1912 24.9966 26.4338 25.1584 26.6492C25.3201 26.8648 25.5222 26.9727 25.7648 26.9727Z" fill="currentColor"/>
        </symbol>
        <symbol id="code" width="45" height="45" viewBox="0 0 45 45" fill="none">
            <path d="M15.3211 19.3757C15.0519 18.9719 14.5062 18.8626 14.1023 19.132L6.19216 24.4055C5.94765 24.5684 5.80078 24.8428 5.80078 25.1367C5.80078 25.4306 5.94765 25.705 6.19216 25.868L14.1023 31.1414C14.5044 31.4095 15.0507 31.3033 15.3211 30.8977C15.5904 30.4938 15.4812 29.9481 15.0774 29.6789L8.26418 25.1367L15.0774 20.5945C15.4812 20.3253 15.5904 19.7796 15.3211 19.3757Z" fill="currentColor"/>
            <path d="M29.679 30.8977C29.949 31.3027 30.495 31.41 30.8978 31.1414L38.8079 25.868C39.0524 25.705 39.1993 25.4305 39.1993 25.1367C39.1993 24.8429 39.0524 24.5684 38.8079 24.4055L30.8978 19.132C30.4939 18.8628 29.9483 18.9719 29.679 19.3758C29.4097 19.7796 29.5188 20.3253 29.9227 20.5945L36.7359 25.1367L29.9227 29.6789C29.5188 29.9481 29.4097 30.4938 29.679 30.8977Z" fill="currentColor"/>
            <path d="M25.5298 19.0772C25.0957 18.86 24.5677 19.036 24.3506 19.4702L19.0771 30.0171C18.86 30.4513 19.036 30.9792 19.4702 31.1963C19.9053 31.4138 20.4327 31.2365 20.6494 30.8032L25.9228 20.2564C26.1399 19.8221 25.964 19.2942 25.5298 19.0772Z" fill="currentColor"/>
            <path d="M22.5 41.8359C22.9854 41.8359 23.3789 41.4424 23.3789 40.957C23.3789 40.4716 22.9854 40.0781 22.5 40.0781C22.0146 40.0781 21.6211 40.4716 21.6211 40.957C21.6211 41.4424 22.0146 41.8359 22.5 41.8359Z" fill="currentColor"/>
            <path d="M2.63672 41.8359H18.5449C19.0303 41.8359 19.4238 41.4425 19.4238 40.957C19.4238 40.4716 19.0303 40.0781 18.5449 40.0781H2.63672C2.15209 40.0781 1.75781 39.6838 1.75781 39.1992V10.1953H43.2422V39.1992C43.2422 39.6838 42.8479 40.0781 42.3633 40.0781H26.4551C25.9697 40.0781 25.5762 40.4716 25.5762 40.957C25.5762 41.4425 25.9697 41.8359 26.4551 41.8359H42.3633C43.8172 41.8359 45 40.6531 45 39.1992V5.80078C45 4.34689 43.8172 3.16406 42.3633 3.16406H2.63672C1.18283 3.16406 0 4.34689 0 5.80078V39.1992C0 40.6531 1.18283 41.8359 2.63672 41.8359ZM43.2422 5.80078V8.4375H15.4688V4.92188H42.3633C42.8479 4.92188 43.2422 5.31615 43.2422 5.80078ZM2.63672 4.92188H13.7109V8.4375H1.75781V5.80078C1.75781 5.31615 2.15209 4.92188 2.63672 4.92188Z" fill="currentColor"/>
        </symbol>

        <symbol id="course" width="45" height="45" viewBox="0 0 45 45" fill="none">
            <g clip-path="url(#clip0)">
                <path d="M43.5052 14.7229L25.567 5.96005C24.0206 5.18685 21.3918 5.18685 19.8454 5.96005L1.49485 14.7229C0.206186 15.3415 0 16.2178 0 16.6817C0 17.1456 0.206186 17.9704 1.49485 18.6405L2.98969 19.3621V27.6095C2.06186 27.9704 1.39175 28.8982 1.39175 29.9291C1.39175 30.9601 2.06186 31.8879 2.93814 32.2487L0.618557 39.6198H7.1134L4.79381 32.2487C5.72165 31.8879 6.34021 30.9601 6.34021 29.9291C6.34021 28.8466 5.6701 27.9704 4.74227 27.6095V20.2384L7.47423 21.5786V32.3003C7.47423 32.4549 7.52577 32.6095 7.62887 32.7642C7.8866 33.0735 12.6804 39.6198 22.4742 39.6198C32.268 39.6198 37.0619 33.0219 37.268 32.7642C37.3711 32.6095 37.4227 32.4549 37.4227 32.3003V21.6302L43.5052 18.6405C44.7938 18.0219 45 17.1456 45 16.6817C44.9485 16.2178 44.7938 15.3415 43.5052 14.7229ZM35.7732 32.0425C34.9485 33.0735 30.5155 38.0219 22.4742 38.0219C14.433 38.0219 10 33.0735 9.17526 32.0425V22.3003L19.8454 27.4034C20.6186 27.7642 21.6495 27.9704 22.6804 27.9704C23.7629 27.9704 24.7938 27.7642 25.567 27.3518L35.7732 22.3518V32.0425ZM42.7835 17.1972L36.5979 20.2384C36.3402 20.2384 36.134 20.3415 36.0309 20.5477L24.8454 25.9601C23.7629 26.5271 21.6495 26.5271 20.5155 25.9601L6.75258 19.3621L22.5773 17.5064C23.0412 17.4549 23.3505 17.0425 23.299 16.6302C23.2474 16.1662 22.8351 15.857 22.4227 15.9085L4.07216 18.0735L2.21649 17.1972C1.75258 16.991 1.64948 16.7332 1.64948 16.7332C1.64948 16.6817 1.75258 16.4755 2.21649 16.2693L20.567 7.4549C21.134 7.19716 21.9072 7.04253 22.6804 7.04253C23.5052 7.04253 24.3299 7.19716 24.8454 7.4549L42.7835 16.2178C43.2474 16.424 43.3505 16.6302 43.3505 16.7332C43.3505 16.7332 43.1959 16.991 42.7835 17.1972Z" fill="currentColor"/>
            </g>
            <defs>
                <clipPath id="clip0">
                    <rect width="45" height="45" fill="white"/>
                </clipPath>
            </defs>
        </symbol>

        <symbol id="file" width="45" height="45" viewBox="0 0 45 45" fill="none">
            <path d="M37.7712 9.15057H27.1103C24.5199 9.15057 22.4065 7.04646 22.4065 4.4467C22.4065 3.74533 21.8454 3.18423 21.144 3.18423H7.2288C3.24501 3.18423 0 6.42925 0 10.413V34.587C0 38.5708 3.24501 41.8158 7.2288 41.8158H37.7712C41.755 41.8158 45 38.5708 45 34.587V16.37C45 12.3862 41.755 9.15057 37.7712 9.15057ZM42.4751 34.5776C42.4751 37.168 40.3709 39.2815 37.7712 39.2815H7.2288C4.6384 39.2815 2.52494 37.1774 2.52494 34.5776V10.413C2.52494 7.82264 4.62905 5.70917 7.2288 5.70917H19.9938C20.5923 9.09446 23.5567 11.6755 27.1103 11.6755H37.7712C40.3616 11.6755 42.4751 13.7796 42.4751 16.3794V34.5776Z" fill="currentColor"/>
        </symbol>

        <symbol id="msg" width="45" height="45" viewBox="0 0 45 45" fill="none">
            <g clip-path="url(#clip0)">
                <path d="M39.5065 5H5.50279C2.46741 5 0 7.46741 0 10.5028V33.743C0 36.7784 2.46741 39.2458 5.50279 39.2458H39.4972C42.5326 39.2458 45 36.7784 45 33.743V10.5121C45.0093 7.47672 42.5419 5 39.5065 5ZM42.4953 33.743C42.4953 35.3911 41.1546 36.7318 39.5065 36.7318H5.50279C3.85475 36.7318 2.51397 35.3911 2.51397 33.743V10.5121C2.51397 8.86406 3.85475 7.52328 5.50279 7.52328H39.4972C41.1453 7.52328 42.486 8.86406 42.486 10.5121V33.743H42.4953Z" fill="currentColor"/>
                <path d="M28.38 21.8343L39.3855 11.9646C39.8976 11.4991 39.9442 10.7077 39.4787 10.1862C39.0131 9.67414 38.2217 9.62759 37.7003 10.0931L22.5233 23.7151L19.5625 21.0708C19.5531 21.0615 19.5438 21.0522 19.5438 21.0429C19.4787 20.9777 19.4135 20.9218 19.339 20.8659L7.29057 10.0838C6.76915 9.61828 5.97772 9.66483 5.51217 10.1862C5.04662 10.7077 5.09318 11.4991 5.61459 11.9646L16.7505 21.9181L5.66115 32.2998C5.15835 32.7747 5.13042 33.5661 5.60528 34.0782C5.85668 34.3389 6.19187 34.4786 6.52707 34.4786C6.83433 34.4786 7.14159 34.3669 7.38368 34.1434L18.6407 23.6127L21.6947 26.3408C21.9368 26.555 22.2347 26.6574 22.5327 26.6574C22.8306 26.6574 23.1379 26.5457 23.3706 26.3315L26.5084 23.5196L37.7003 34.1527C37.9423 34.3855 38.2589 34.4972 38.5662 34.4972C38.9014 34.4972 39.2273 34.3669 39.4787 34.1062C39.9535 33.6034 39.9349 32.8026 39.4321 32.3278L28.38 21.8343Z" fill="currentColor"/>
            </g>
            <defs>
                <clipPath id="clip0">
                <rect width="45" height="45" fill="white"/>
                </clipPath>
            </defs>
        </symbol>

        <symbol id="task" width="45" height="45" viewBox="0 0 45 45" fill="none">
            <g clip-path="url(#clip0)">
                <path d="M39.1235 11.6972H11.7156C9.17599 11.6972 7.09978 9.63028 7.09978 7.08136C7.09978 4.54171 9.16672 2.4655 11.7156 2.4655H39.1327C39.8186 2.4655 40.3655 1.90937 40.3655 1.23275C40.3655 0.546859 39.8094 0 39.1327 0H11.7156C7.81347 0 4.63428 3.1792 4.63428 7.08136V37.9186C4.63428 41.8208 7.81347 45 11.7156 45H39.1327C39.8186 45 40.3655 44.4439 40.3655 43.7673V12.93C40.3562 12.2533 39.8094 11.6972 39.1235 11.6972ZM37.8907 42.5345H11.7156C9.17599 42.5345 7.09978 40.4676 7.09978 37.9186V12.4573C8.34179 13.5232 9.95457 14.172 11.7156 14.172H37.8907V42.5345Z" fill="currentColor"/>
                <path d="M12.1048 5.95984C11.4189 5.95984 10.8721 6.51596 10.8721 7.19258C10.8721 7.86921 11.4282 8.42533 12.1048 8.42533H35.2583C35.9442 8.42533 36.491 7.86921 36.491 7.19258C36.491 6.51596 35.9349 5.95984 35.2583 5.95984H12.1048Z" fill="currentColor"/>
                <path d="M16.4428 37.1401C16.5818 37.1864 16.7208 37.2142 16.8599 37.2142C17.3697 37.2142 17.8424 36.8991 18.0185 36.3986L19.52 32.1998H25.3037C25.3501 32.1998 25.4057 32.1998 25.452 32.1905L26.9536 36.3986C27.1297 36.8991 27.6117 37.2142 28.1122 37.2142C28.2512 37.2142 28.3903 37.1864 28.5293 37.1401C29.1688 36.9083 29.5025 36.2039 29.2708 35.5644L23.6539 19.8167C23.6446 19.7796 23.6261 19.7425 23.6076 19.7055C23.5983 19.6869 23.589 19.6684 23.5797 19.6498C23.5705 19.6313 23.5612 19.6128 23.5519 19.5942C23.5427 19.5757 23.5241 19.5572 23.5149 19.5293C23.5056 19.5201 23.4963 19.5015 23.4871 19.4923C23.4778 19.4737 23.4593 19.4552 23.4407 19.4367C23.4314 19.4274 23.4222 19.4089 23.4036 19.3996C23.3944 19.381 23.3758 19.3718 23.3573 19.3532C23.3388 19.3347 23.3295 19.3254 23.311 19.3069C23.3017 19.2976 23.2831 19.2884 23.2739 19.2698C23.2553 19.2513 23.2368 19.242 23.2183 19.2235C23.209 19.2142 23.1905 19.2049 23.1812 19.1957C23.1627 19.1864 23.1441 19.1679 23.1256 19.1586C23.107 19.1493 23.0885 19.1401 23.07 19.1308C23.0514 19.1215 23.0329 19.1123 23.0144 19.103C22.9773 19.0844 22.9402 19.0659 22.9031 19.0566H22.8939C22.8568 19.0474 22.8197 19.0381 22.7826 19.0288C22.7641 19.0288 22.7548 19.0196 22.7363 19.0196C22.7085 19.0103 22.6899 19.0103 22.6621 19.001C22.6436 19.001 22.6251 19.001 22.6065 18.9918C22.588 18.9918 22.5602 18.9825 22.5416 18.9825C22.5231 18.9825 22.5046 18.9825 22.486 18.9825C22.4675 18.9825 22.449 18.9825 22.4211 18.9825C22.4026 18.9825 22.3748 18.9825 22.3563 18.9918C22.3377 18.9918 22.3192 18.9918 22.3007 19.001C22.2728 19.001 22.2543 19.0103 22.2265 19.0196C22.208 19.0196 22.1987 19.0288 22.1802 19.0288C22.1431 19.0381 22.106 19.0474 22.0782 19.0566H22.0689C22.0319 19.0659 21.9948 19.0844 21.9577 19.103C21.9392 19.1123 21.9206 19.1215 21.9021 19.1308C21.8836 19.1401 21.865 19.1493 21.8465 19.1586C21.8279 19.1679 21.8094 19.1864 21.7816 19.1957C21.7723 19.2049 21.7538 19.2142 21.7445 19.2235C21.726 19.242 21.7075 19.2513 21.6889 19.2698C21.6796 19.2791 21.6611 19.2884 21.6518 19.3069C21.6333 19.3254 21.624 19.3347 21.6055 19.3532C21.587 19.3718 21.5777 19.381 21.5592 19.3996C21.5499 19.4089 21.5406 19.4274 21.5221 19.4367C21.5035 19.4552 21.4943 19.4737 21.4757 19.4923C21.4665 19.5015 21.4572 19.5201 21.4479 19.5293C21.4387 19.5479 21.4201 19.5664 21.4108 19.585C21.4016 19.6035 21.3923 19.622 21.383 19.6406C21.3738 19.6591 21.3645 19.6776 21.3552 19.6962C21.3367 19.7333 21.3182 19.7703 21.3089 19.8074L15.6735 35.5551C15.4696 36.2039 15.8032 36.9083 16.4428 37.1401ZM22.4953 23.8949L24.5808 29.7343H20.4006L22.4953 23.8949Z" fill="currentColor"/>
            </g>
            <defs>
                <clipPath id="clip0">
                <rect width="45" height="45" fill="white"/>
                </clipPath>
            </defs>
        </symbol>


        <symbol id="inf" width="66" height="70" viewBox="0 0 66 70" fill="none">
            <path d="M51.7501 1.87063e-05C46.6006 -0.00547445 41.8801 2.86989 39.5235 7.44875C37.1663 12.027 37.5686 17.5397 40.5654 21.7273C40.8224 22.0874 40.87 22.5568 40.6899 22.9614L39.2129 26.2873L42.5387 24.809C42.6986 24.7376 42.8713 24.7009 43.0465 24.7016C43.3071 24.7009 43.5616 24.7821 43.774 24.9335C48.6111 28.3936 55.1241 28.3515 59.916 24.8291C64.7085 21.3074 66.6927 15.1038 64.8348 9.45436C62.9769 3.80495 57.6974 -0.00974692 51.7501 1.87063e-05ZM47.6339 16.6162L45.8663 18.3838L42.1163 14.6338C41.6286 14.1455 41.6286 13.3545 42.1163 12.8662L45.8663 9.11623L47.6339 10.8838L44.7677 13.75L47.6339 16.6162ZM50.4116 20.4639L48.0886 19.5362L53.0886 7.03615L55.4116 7.96389L50.4116 20.4639ZM61.3839 14.6338L57.6339 18.3838L55.8663 16.6162L58.7325 13.75L55.8663 10.8838L57.6339 9.11623L61.3839 12.8662C61.8716 13.3545 61.8716 14.1455 61.3839 14.6338Z" fill="currentColor"/>
            <path d="M14.8048 59.2712L17.469 57.2736L14.3416 53.3649L13.155 55.1465L14.8048 59.2712Z" fill="currentColor"/>
            <path d="M23 50.8112V47.3877C22.5874 47.4597 22.1693 47.4976 21.75 47.5H16.75C16.3307 47.4976 15.9126 47.4597 15.5 47.3877V50.8112L19.25 55.4987L23 50.8112Z" fill="currentColor"/>
            <path d="M23.8752 27.2388C20.2174 30.5353 14.2128 31.8848 11.75 32.3187V40C11.75 42.7612 13.9888 45 16.75 45H21.75C24.5112 45 26.75 42.7612 26.75 40V30.7074C25.536 29.79 24.5515 28.6023 23.8752 27.2388ZM15.5 35C14.8097 35 14.25 34.4403 14.25 33.75C14.25 33.0597 14.8097 32.5 15.5 32.5C16.1903 32.5 16.75 33.0597 16.75 33.75C16.75 34.4403 16.1903 35 15.5 35ZM23 35C22.3097 35 21.75 34.4403 21.75 33.75C21.75 33.0597 22.3097 32.5 23 32.5C23.6903 32.5 24.25 33.0597 24.25 33.75C24.25 34.4403 23.6903 35 23 35Z" fill="currentColor"/>
            <path d="M8 31.4801C8.40039 31.3318 8.82336 31.2543 9.25 31.25C9.25 30.6201 9.71875 30.0885 10.3438 30.0098C10.439 29.9976 19.8665 28.7598 23.2502 24.2499C23.5292 23.8788 23.9906 23.6926 24.4496 23.7665C24.908 23.8409 25.2876 24.1632 25.4353 24.6039C25.7411 25.5115 26.9001 28.0524 28.5603 28.8812C28.9833 29.0936 29.2506 29.5264 29.25 30V31.25C29.6766 31.2543 30.0996 31.3318 30.5 31.4801V27.5C30.5 21.2866 25.4634 16.25 19.25 16.25C13.0366 16.25 8 21.2866 8 27.5V31.4801Z" fill="currentColor"/>
            <path d="M25.345 55.1465L24.1591 53.3649L21.031 57.2736L23.6952 59.2712L25.345 55.1465Z" fill="currentColor"/>
            <path d="M0.5 70H38V66.25C37.9896 59.6259 33.2625 53.9484 26.75 52.7374L27.7961 54.306C28.0262 54.6478 28.0726 55.0812 27.9213 55.4639L25.4213 61.7139C25.2766 62.0752 24.972 62.3486 24.5973 62.4536C24.4844 62.4847 24.3672 62.5006 24.25 62.5C23.9796 62.5 23.7166 62.4121 23.4999 62.2498L19.25 59.0625L15.0001 62.2498C14.7834 62.4121 14.5204 62.5 14.25 62.5C14.1359 62.4994 14.0223 62.4841 13.9125 62.4536C13.5377 62.3486 13.2332 62.0752 13.0885 61.7139L10.5885 55.4639C10.4371 55.0812 10.4841 54.6478 10.7136 54.306L11.7598 52.7374C5.24365 53.9441 0.511597 59.6228 0.5 66.25V70Z" fill="currentColor"/>
        </symbol>

        <symbol id="www" width="70" height="70" viewBox="0 0 70 70" fill="none">
            <path d="M22.3987 20.6445H32.9493V4.44348C28.545 5.88969 24.5841 12.0718 22.3987 20.6445Z" fill="currentColor"/>
            <path d="M22.3987 49.3555C24.5841 57.9281 28.545 64.1103 32.9493 65.5565V49.3555H22.3987Z" fill="currentColor"/>
            <path d="M67.9492 24.7461H2.05078C0.918203 24.7461 0 25.664 0 26.7969V43.2031C0 44.3357 0.918203 45.2539 2.05078 45.2539H67.9492C69.0818 45.2539 70 44.3357 70 43.2031V26.7969C70 25.664 69.0818 24.7461 67.9492 24.7461ZM65.5454 31.8157L61.4439 40.0188C61.0954 40.7138 60.3865 41.1523 59.6094 41.1523C58.8323 41.1523 58.1234 40.7138 57.7749 40.0188L55.5078 35.4847L53.2407 40.0188C52.5438 41.4087 50.2687 41.4087 49.5718 40.0188L45.6425 32.1582C45.4061 31.868 45.2714 31.5036 45.2277 31.1145C45.2024 31.3515 45.1505 31.5898 45.0376 31.8157L40.9361 40.0188C40.5876 40.7138 39.8787 41.1523 39.1016 41.1523C38.3245 41.1523 37.6156 40.7138 37.2671 40.0188L35 35.4847L32.7329 40.0188C32.0359 41.4087 29.7609 41.4087 29.0639 40.0188L24.9624 31.8157C24.8537 31.5984 24.8069 31.369 24.7796 31.141C24.728 31.5829 24.5612 31.9856 24.2914 32.2923L20.4281 40.0188C20.0797 40.7138 19.3709 41.1523 18.5938 41.1523C17.8166 41.1523 17.1078 40.7138 16.7593 40.0188L14.4922 35.4847L12.2251 40.0188C11.8766 40.7138 11.1677 41.1523 10.3906 41.1523C9.61352 41.1523 8.90463 40.7138 8.55613 40.0188L4.45457 31.8157C3.94789 30.8023 4.35846 29.5706 5.37182 29.0639C6.38312 28.5633 7.61291 28.9658 8.12355 29.9812L10.3906 34.5153L12.6577 29.9812C13.3833 28.5253 15.5682 28.464 16.3267 29.9812L18.5938 34.5153L20.8608 29.9812C21.2293 29.2441 22.0043 28.8437 22.8275 28.8516C23.8875 28.9212 24.7301 29.7954 24.7747 30.8353C24.7991 30.1078 25.1828 29.4123 25.8796 29.0638C26.895 28.5631 28.1226 28.9656 28.6314 29.9811L30.8984 34.5153L33.1655 29.9812C33.8625 28.5913 36.1375 28.5913 36.8345 29.9812L39.1016 34.5153L41.3686 29.9812C41.8753 28.9658 43.107 28.5633 44.1204 29.0639C44.8113 29.4094 45.1921 30.096 45.2229 30.8165C45.2627 29.7864 45.9952 28.9287 47.0482 28.8597C47.8934 28.8397 48.7706 29.2443 49.1392 29.9812L51.4062 34.5153L53.6733 29.9812C54.3703 28.5913 56.6453 28.5913 57.3423 29.9812L59.6094 34.5153L61.8764 29.9812C62.3852 28.9658 63.6128 28.5633 64.6282 29.0639C65.6415 29.5706 66.0521 30.8023 65.5454 31.8157Z" fill="currentColor"/>
            <path d="M37.0508 49.3555V65.5565C41.455 64.1103 45.4159 57.9281 47.6014 49.3555H37.0508Z" fill="currentColor"/>
            <path d="M37.0508 4.44348V20.6445H47.6014C45.4159 12.0718 41.455 5.88969 37.0508 4.44348Z" fill="currentColor"/>
            <path d="M18.1863 49.3555H3.35571C8.96132 61.6632 21.3739 70 35.0001 70C27.5918 70 21.12 61.8414 18.1863 49.3555Z" fill="currentColor"/>
            <path d="M51.8138 49.3555C48.8801 61.8414 42.4082 70 35 70C48.6262 70 61.0388 61.6632 66.6444 49.3555H51.8138Z" fill="currentColor"/>
            <path d="M3.35571 20.6445H18.1863C21.12 8.15856 27.5918 0 35.0001 0C21.3739 0 8.96132 8.33684 3.35571 20.6445Z" fill="currentColor"/>
            <path d="M35 0C42.4082 0 48.8801 8.15856 51.8138 20.6445H66.6444C61.0388 8.33684 48.6262 0 35 0Z" fill="currentColor"/>
        </symbol>

        <symbol id="robo" width="66" height="70" viewBox="0 0 66 70" fill="none">
            <path d="M21.2322 0C16.8658 0 13.3135 3.55236 13.3135 7.91875C13.3135 12.2851 16.8658 15.8375 21.2322 15.8375C25.5986 15.8375 29.151 12.2851 29.151 7.91875C29.151 3.55236 25.5986 0 21.2322 0ZM23.283 9.96953H19.1814V5.86797H23.283V9.96953Z" fill="currentColor"/>
            <path d="M21.2325 44.2888C19.7678 44.2888 18.5762 45.4803 18.5762 46.945C18.5762 48.4097 19.7678 49.6013 21.2325 49.6013C22.6971 49.6013 23.8888 48.4097 23.8888 46.945C23.8888 45.4803 22.6971 44.2888 21.2325 44.2888Z" fill="currentColor"/>
            <path d="M33.3028 46.945C33.3028 40.2894 27.8881 34.8746 21.2325 34.8746C14.5769 34.8746 9.16211 40.2894 9.16211 46.945V57.5586H33.3027V46.945H33.3028ZM21.2325 53.7029C17.5062 53.7029 14.4746 50.6713 14.4746 46.945C14.4746 43.2187 17.5062 40.1873 21.2325 40.1873C24.9587 40.1873 27.9903 43.2187 27.9903 46.945C27.9903 50.6713 24.9587 53.7029 21.2325 53.7029Z" fill="currentColor"/>
            <path d="M21.2324 19.939C19.062 19.939 17.0242 19.3607 15.2648 18.3502L13.3027 32.8553C15.6472 31.5306 18.3528 30.7732 21.2324 30.7732C24.112 30.7732 26.8176 31.5306 29.1621 32.8553L27.2001 18.3504C25.4406 19.3607 23.4028 19.939 21.2324 19.939Z" fill="currentColor"/>
            <path d="M60.9393 14.3575C63.6659 13.487 65.6462 10.9303 65.6462 7.91876C65.6462 4.19249 62.6148 1.16089 58.8885 1.16089C55.877 1.16089 53.3202 3.1414 52.4497 5.86798H46.2807C45.4847 4.01394 43.643 2.71511 41.4975 2.71511H32.0669C32.8266 4.29052 33.2527 6.05583 33.2527 7.91876C33.2527 9.78169 32.8266 11.547 32.0669 13.1224H41.4975C43.643 13.1224 45.4847 11.8236 46.2807 9.96954H52.4499C53.1138 12.0489 54.7585 13.6938 56.8379 14.3575V29.4032H52.1308V37.5583L53.3126 41.4622L57.2382 40.2739L56.2325 36.9511V33.5047H61.545V36.9511L60.5393 40.2739L64.4649 41.4622L65.6465 37.5583V29.4032H60.9396V14.3575H60.9393Z" fill="currentColor"/>
            <path d="M0.353516 61.6602H42.1114V70H0.353516V61.6602Z" fill="currentColor"/>
        </symbol>


    </defs>
</svg>