<svg width="45" height="45" viewBox="0 0 45 45" fill="none" xmlns="http://www.w3.org/2000/svg">
<path d="M40.6055 2.72461H36.7383V0.900879C36.7383 0.415635 36.3437 0.0219727 35.8594 0.0219727C35.3751 0.0219727 34.9805 0.415635 34.9805 0.900879V2.72461H27.8174V0.878906C27.8174 0.393662 27.4228 0 26.9385 0C26.4542 0 26.0596 0.393662 26.0596 0.878906V2.72461H18.9404V0.878906C18.9404 0.393662 18.5458 0 18.0615 0C17.5772 0 17.1826 0.393662 17.1826 0.878906V2.72461H10.0274V0.900879C10.0274 0.415635 9.63281 0.0219727 9.14853 0.0219727C8.66338 0.0219727 8.26963 0.415635 8.26963 0.900879V2.72461H4.39453C1.97139 2.72461 0 4.696 0 7.11914V40.6055C0 43.0286 1.97139 45 4.39453 45H40.6055C43.0286 45 45 43.0286 45 40.6055V7.11914C45 4.696 43.0286 2.72461 40.6055 2.72461ZM43.2422 40.6055C43.2422 42.0594 42.0594 43.2422 40.6055 43.2422H4.39453C2.94064 43.2422 1.75781 42.0594 1.75781 40.6055V17.7539H43.2422V40.6055ZM43.2422 15.9961H1.75781V14.2383H43.2422V15.9961ZM43.2422 12.4805H1.75781V7.11914C1.75781 5.66525 2.94064 4.48242 4.39453 4.48242H8.26963V6.17432C8.26963 6.65859 8.66338 7.05322 9.14853 7.05322C9.63281 7.05322 10.0274 6.65859 10.0274 6.17432V4.48242H17.1826V6.15234C17.1826 6.63662 17.5772 7.03125 18.0615 7.03125C18.5458 7.03125 18.9404 6.63662 18.9404 6.15234V4.48242H26.0596V6.15234C26.0596 6.63662 26.4542 7.03125 26.9385 7.03125C27.4228 7.03125 27.8174 6.63662 27.8174 6.15234V4.48242H34.9805V6.17432C34.9805 6.65859 35.3751 7.05322 35.8594 7.05322C36.3437 7.05322 36.7383 6.65859 36.7383 6.17432V4.48242H40.6055C42.0594 4.48242 43.2422 5.66525 43.2422 7.11914V12.4805Z" fill="#019877"/>
<path d="M35.8594 8.81104C35.3751 8.81104 34.9805 9.20566 34.9805 9.68994C34.9805 10.1742 35.3751 10.5688 35.8594 10.5688C36.3437 10.5688 36.7383 10.1742 36.7383 9.68994C36.7383 9.20566 36.3437 8.81104 35.8594 8.81104Z" fill="#019877"/>
<path d="M26.9385 8.78906C26.4542 8.78906 26.0596 9.18369 26.0596 9.66797C26.0596 10.1522 26.4542 10.5469 26.9385 10.5469C27.4228 10.5469 27.8174 10.1522 27.8174 9.66797C27.8174 9.18369 27.4228 8.78906 26.9385 8.78906Z" fill="#019877"/>
<path d="M18.0615 8.78906C17.5772 8.78906 17.1826 9.18369 17.1826 9.66797C17.1826 10.1522 17.5772 10.5469 18.0615 10.5469C18.5458 10.5469 18.9404 10.1522 18.9404 9.66797C18.9404 9.18369 18.5458 8.78906 18.0615 8.78906Z" fill="#019877"/>
<path d="M9.14868 8.81104C8.66353 8.81104 8.26978 9.20566 8.26978 9.68994C8.26978 10.1742 8.66353 10.5688 9.14868 10.5688C9.63296 10.5688 10.0276 10.1742 10.0276 9.68994C10.0276 9.20566 9.63296 8.81104 9.14868 8.81104Z" fill="#019877"/>
<path d="M14.6972 36.7566C15.4857 37.5115 16.641 37.8886 18.1641 37.8886C19.6059 37.8886 20.7749 37.5247 21.6713 36.797C22.8105 35.8722 23.0156 34.3944 23.0156 33.0168C23.0156 31.5209 22.3299 30.5035 20.9591 29.9644C21.4623 29.7364 21.8533 29.3236 22.1322 28.7259C22.4111 28.1286 22.5508 27.4271 22.5508 26.6217C22.5508 24.201 21.1221 22.9903 18.2652 22.9903C17.4566 22.9903 16.7491 23.1054 16.1427 23.3352C15.5362 23.5652 15.0744 23.8631 14.7579 24.2282C14.4412 24.5936 14.2086 24.9692 14.0604 25.3544C13.9121 25.7402 13.8382 26.129 13.8382 26.5212C13.8382 26.9637 13.9222 27.2619 14.0908 27.4161C14.2592 27.5702 14.6265 27.6473 15.1926 27.6473C16.028 27.6473 16.4459 27.3122 16.4459 26.6419C16.4459 25.744 17.0453 25.2948 18.245 25.2948C19.4307 25.2948 20.0239 25.8849 20.0239 27.0642C20.0239 27.8552 19.8632 28.381 19.5423 28.6427C19.2214 28.9042 18.7665 29.0346 18.1784 29.0346C17.6565 29.0346 17.396 29.3782 17.396 30.0655C17.396 30.7528 17.6518 31.0965 18.1641 31.0965C18.7546 31.0965 19.4164 31.1907 19.8674 31.6082C20.6478 32.3308 20.6169 34.3239 19.8724 35.0686C19.5288 35.4123 18.9795 35.5841 18.225 35.5841C17.5781 35.5841 17.0658 35.4527 16.6886 35.1899C16.3111 34.9271 16.1226 34.5668 16.1226 34.1084C16.1226 33.7717 16.0282 33.5323 15.8396 33.3908C15.6508 33.2493 15.2938 33.1785 14.7683 33.1785C14.31 33.1785 13.9865 33.2528 13.798 33.4008C13.6091 33.5493 13.5149 33.8188 13.5149 34.2095C13.5146 35.153 13.9088 36.002 14.6972 36.7566Z" fill="#019877"/>
<path d="M25.7648 26.9727C25.9534 26.9727 26.1151 26.912 26.25 26.7907L26.8969 26.1439V36.9385C26.8969 37.1947 27.0248 37.3968 27.2809 37.5449C27.5368 37.6934 27.8469 37.7673 28.2108 37.7673C28.561 37.7673 28.8679 37.6934 29.1306 37.5449C29.3934 37.3968 29.5248 37.1947 29.5248 36.9385V23.7988C29.5248 23.5563 29.4035 23.3541 29.1609 23.1925C28.9183 23.0309 28.6486 22.9499 28.3523 22.9499C28.1501 22.9499 27.9682 23.0175 27.8065 23.1521L25.4211 24.9714C25.0841 25.1871 24.9158 25.504 24.9158 25.9215C24.9158 26.1912 24.9966 26.4338 25.1584 26.6492C25.3201 26.8648 25.5222 26.9727 25.7648 26.9727Z" fill="#019877"/>
</svg>
