<svg width="45" height="45" viewBox="0 0 45 45" fill="none" xmlns="http://www.w3.org/2000/svg">
<path d="M37.7712 9.15057H27.1103C24.5199 9.15057 22.4065 7.04646 22.4065 4.4467C22.4065 3.74533 21.8454 3.18423 21.144 3.18423H7.2288C3.24501 3.18423 0 6.42925 0 10.413V34.587C0 38.5708 3.24501 41.8158 7.2288 41.8158H37.7712C41.755 41.8158 45 38.5708 45 34.587V16.37C45 12.3862 41.755 9.15057 37.7712 9.15057ZM42.4751 34.5776C42.4751 37.168 40.3709 39.2815 37.7712 39.2815H7.2288C4.6384 39.2815 2.52494 37.1774 2.52494 34.5776V10.413C2.52494 7.82264 4.62905 5.70917 7.2288 5.70917H19.9938C20.5923 9.09446 23.5567 11.6755 27.1103 11.6755H37.7712C40.3616 11.6755 42.4751 13.7796 42.4751 16.3794V34.5776Z" fill="#019877"/>
</svg>
