<svg width="45" height="45" viewBox="0 0 45 45" fill="none" xmlns="http://www.w3.org/2000/svg">
<g clip-path="url(#clip0)">
<path d="M39.5065 5H5.50279C2.46741 5 0 7.46741 0 10.5028V33.743C0 36.7784 2.46741 39.2458 5.50279 39.2458H39.4972C42.5326 39.2458 45 36.7784 45 33.743V10.5121C45.0093 7.47672 42.5419 5 39.5065 5ZM42.4953 33.743C42.4953 35.3911 41.1546 36.7318 39.5065 36.7318H5.50279C3.85475 36.7318 2.51397 35.3911 2.51397 33.743V10.5121C2.51397 8.86406 3.85475 7.52328 5.50279 7.52328H39.4972C41.1453 7.52328 42.486 8.86406 42.486 10.5121V33.743H42.4953Z" fill="#019877"/>
<path d="M28.38 21.8343L39.3855 11.9646C39.8976 11.4991 39.9442 10.7077 39.4787 10.1862C39.0131 9.67414 38.2217 9.62759 37.7003 10.0931L22.5233 23.7151L19.5625 21.0708C19.5531 21.0615 19.5438 21.0522 19.5438 21.0429C19.4787 20.9777 19.4135 20.9218 19.339 20.8659L7.29057 10.0838C6.76915 9.61828 5.97772 9.66483 5.51217 10.1862C5.04662 10.7077 5.09318 11.4991 5.61459 11.9646L16.7505 21.9181L5.66115 32.2998C5.15835 32.7747 5.13042 33.5661 5.60528 34.0782C5.85668 34.3389 6.19187 34.4786 6.52707 34.4786C6.83433 34.4786 7.14159 34.3669 7.38368 34.1434L18.6407 23.6127L21.6947 26.3408C21.9368 26.555 22.2347 26.6574 22.5327 26.6574C22.8306 26.6574 23.1379 26.5457 23.3706 26.3315L26.5084 23.5196L37.7003 34.1527C37.9423 34.3855 38.2589 34.4972 38.5662 34.4972C38.9014 34.4972 39.2273 34.3669 39.4787 34.1062C39.9535 33.6034 39.9349 32.8026 39.4321 32.3278L28.38 21.8343Z" fill="#019877"/>
</g>
<defs>
<clipPath id="clip0">
<rect width="45" height="45" fill="white"/>
</clipPath>
</defs>
</svg>
