<svg width="45" height="45" viewBox="0 0 45 45" fill="none" xmlns="http://www.w3.org/2000/svg">
<path d="M15.3211 19.3757C15.0519 18.9719 14.5062 18.8626 14.1023 19.132L6.19216 24.4055C5.94765 24.5684 5.80078 24.8428 5.80078 25.1367C5.80078 25.4306 5.94765 25.705 6.19216 25.868L14.1023 31.1414C14.5044 31.4095 15.0507 31.3033 15.3211 30.8977C15.5904 30.4938 15.4812 29.9481 15.0774 29.6789L8.26418 25.1367L15.0774 20.5945C15.4812 20.3253 15.5904 19.7796 15.3211 19.3757Z" fill="#019877"/>
<path d="M29.679 30.8977C29.949 31.3027 30.495 31.41 30.8978 31.1414L38.8079 25.868C39.0524 25.705 39.1993 25.4305 39.1993 25.1367C39.1993 24.8429 39.0524 24.5684 38.8079 24.4055L30.8978 19.132C30.4939 18.8628 29.9483 18.9719 29.679 19.3758C29.4097 19.7796 29.5188 20.3253 29.9227 20.5945L36.7359 25.1367L29.9227 29.6789C29.5188 29.9481 29.4097 30.4938 29.679 30.8977Z" fill="#019877"/>
<path d="M25.5298 19.0772C25.0957 18.86 24.5677 19.036 24.3506 19.4702L19.0771 30.0171C18.86 30.4513 19.036 30.9792 19.4702 31.1963C19.9053 31.4138 20.4327 31.2365 20.6494 30.8032L25.9228 20.2564C26.1399 19.8221 25.964 19.2942 25.5298 19.0772Z" fill="#019877"/>
<path d="M22.5 41.8359C22.9854 41.8359 23.3789 41.4424 23.3789 40.957C23.3789 40.4716 22.9854 40.0781 22.5 40.0781C22.0146 40.0781 21.6211 40.4716 21.6211 40.957C21.6211 41.4424 22.0146 41.8359 22.5 41.8359Z" fill="#019877"/>
<path d="M2.63672 41.8359H18.5449C19.0303 41.8359 19.4238 41.4425 19.4238 40.957C19.4238 40.4716 19.0303 40.0781 18.5449 40.0781H2.63672C2.15209 40.0781 1.75781 39.6838 1.75781 39.1992V10.1953H43.2422V39.1992C43.2422 39.6838 42.8479 40.0781 42.3633 40.0781H26.4551C25.9697 40.0781 25.5762 40.4716 25.5762 40.957C25.5762 41.4425 25.9697 41.8359 26.4551 41.8359H42.3633C43.8172 41.8359 45 40.6531 45 39.1992V5.80078C45 4.34689 43.8172 3.16406 42.3633 3.16406H2.63672C1.18283 3.16406 0 4.34689 0 5.80078V39.1992C0 40.6531 1.18283 41.8359 2.63672 41.8359ZM43.2422 5.80078V8.4375H15.4688V4.92188H42.3633C42.8479 4.92188 43.2422 5.31615 43.2422 5.80078ZM2.63672 4.92188H13.7109V8.4375H1.75781V5.80078C1.75781 5.31615 2.15209 4.92188 2.63672 4.92188Z" fill="#019877"/>
</svg>
