<svg width="45" height="45" viewBox="0 0 45 45" fill="none" xmlns="http://www.w3.org/2000/svg">
<g clip-path="url(#clip0)">
<path d="M43.5052 14.7229L25.567 5.96005C24.0206 5.18685 21.3918 5.18685 19.8454 5.96005L1.49485 14.7229C0.206186 15.3415 0 16.2178 0 16.6817C0 17.1456 0.206186 17.9704 1.49485 18.6405L2.98969 19.3621V27.6095C2.06186 27.9704 1.39175 28.8982 1.39175 29.9291C1.39175 30.9601 2.06186 31.8879 2.93814 32.2487L0.618557 39.6198H7.1134L4.79381 32.2487C5.72165 31.8879 6.34021 30.9601 6.34021 29.9291C6.34021 28.8466 5.6701 27.9704 4.74227 27.6095V20.2384L7.47423 21.5786V32.3003C7.47423 32.4549 7.52577 32.6095 7.62887 32.7642C7.8866 33.0735 12.6804 39.6198 22.4742 39.6198C32.268 39.6198 37.0619 33.0219 37.268 32.7642C37.3711 32.6095 37.4227 32.4549 37.4227 32.3003V21.6302L43.5052 18.6405C44.7938 18.0219 45 17.1456 45 16.6817C44.9485 16.2178 44.7938 15.3415 43.5052 14.7229ZM35.7732 32.0425C34.9485 33.0735 30.5155 38.0219 22.4742 38.0219C14.433 38.0219 10 33.0735 9.17526 32.0425V22.3003L19.8454 27.4034C20.6186 27.7642 21.6495 27.9704 22.6804 27.9704C23.7629 27.9704 24.7938 27.7642 25.567 27.3518L35.7732 22.3518V32.0425ZM42.7835 17.1972L36.5979 20.2384C36.3402 20.2384 36.134 20.3415 36.0309 20.5477L24.8454 25.9601C23.7629 26.5271 21.6495 26.5271 20.5155 25.9601L6.75258 19.3621L22.5773 17.5064C23.0412 17.4549 23.3505 17.0425 23.299 16.6302C23.2474 16.1662 22.8351 15.857 22.4227 15.9085L4.07216 18.0735L2.21649 17.1972C1.75258 16.991 1.64948 16.7332 1.64948 16.7332C1.64948 16.6817 1.75258 16.4755 2.21649 16.2693L20.567 7.4549C21.134 7.19716 21.9072 7.04253 22.6804 7.04253C23.5052 7.04253 24.3299 7.19716 24.8454 7.4549L42.7835 16.2178C43.2474 16.424 43.3505 16.6302 43.3505 16.7332C43.3505 16.7332 43.1959 16.991 42.7835 17.1972Z" fill="#019877"/>
</g>
<defs>
<clipPath id="clip0">
<rect width="45" height="45" fill="white"/>
</clipPath>
</defs>
</svg>
