<svg width="45" height="45" viewBox="0 0 45 45" fill="none" xmlns="http://www.w3.org/2000/svg">
<g clip-path="url(#clip0)">
<path d="M39.1235 11.6972H11.7156C9.17599 11.6972 7.09978 9.63028 7.09978 7.08136C7.09978 4.54171 9.16672 2.4655 11.7156 2.4655H39.1327C39.8186 2.4655 40.3655 1.90937 40.3655 1.23275C40.3655 0.546859 39.8094 0 39.1327 0H11.7156C7.81347 0 4.63428 3.1792 4.63428 7.08136V37.9186C4.63428 41.8208 7.81347 45 11.7156 45H39.1327C39.8186 45 40.3655 44.4439 40.3655 43.7673V12.93C40.3562 12.2533 39.8094 11.6972 39.1235 11.6972ZM37.8907 42.5345H11.7156C9.17599 42.5345 7.09978 40.4676 7.09978 37.9186V12.4573C8.34179 13.5232 9.95457 14.172 11.7156 14.172H37.8907V42.5345Z" fill="#019877"/>
<path d="M12.1048 5.95984C11.4189 5.95984 10.8721 6.51596 10.8721 7.19258C10.8721 7.86921 11.4282 8.42533 12.1048 8.42533H35.2583C35.9442 8.42533 36.491 7.86921 36.491 7.19258C36.491 6.51596 35.9349 5.95984 35.2583 5.95984H12.1048Z" fill="#019877"/>
<path d="M16.4428 37.1401C16.5818 37.1864 16.7208 37.2142 16.8599 37.2142C17.3697 37.2142 17.8424 36.8991 18.0185 36.3986L19.52 32.1998H25.3037C25.3501 32.1998 25.4057 32.1998 25.452 32.1905L26.9536 36.3986C27.1297 36.8991 27.6117 37.2142 28.1122 37.2142C28.2512 37.2142 28.3903 37.1864 28.5293 37.1401C29.1688 36.9083 29.5025 36.2039 29.2708 35.5644L23.6539 19.8167C23.6446 19.7796 23.6261 19.7425 23.6076 19.7055C23.5983 19.6869 23.589 19.6684 23.5797 19.6498C23.5705 19.6313 23.5612 19.6128 23.5519 19.5942C23.5427 19.5757 23.5241 19.5572 23.5149 19.5293C23.5056 19.5201 23.4963 19.5015 23.4871 19.4923C23.4778 19.4737 23.4593 19.4552 23.4407 19.4367C23.4314 19.4274 23.4222 19.4089 23.4036 19.3996C23.3944 19.381 23.3758 19.3718 23.3573 19.3532C23.3388 19.3347 23.3295 19.3254 23.311 19.3069C23.3017 19.2976 23.2831 19.2884 23.2739 19.2698C23.2553 19.2513 23.2368 19.242 23.2183 19.2235C23.209 19.2142 23.1905 19.2049 23.1812 19.1957C23.1627 19.1864 23.1441 19.1679 23.1256 19.1586C23.107 19.1493 23.0885 19.1401 23.07 19.1308C23.0514 19.1215 23.0329 19.1123 23.0144 19.103C22.9773 19.0844 22.9402 19.0659 22.9031 19.0566H22.8939C22.8568 19.0474 22.8197 19.0381 22.7826 19.0288C22.7641 19.0288 22.7548 19.0196 22.7363 19.0196C22.7085 19.0103 22.6899 19.0103 22.6621 19.001C22.6436 19.001 22.6251 19.001 22.6065 18.9918C22.588 18.9918 22.5602 18.9825 22.5416 18.9825C22.5231 18.9825 22.5046 18.9825 22.486 18.9825C22.4675 18.9825 22.449 18.9825 22.4211 18.9825C22.4026 18.9825 22.3748 18.9825 22.3563 18.9918C22.3377 18.9918 22.3192 18.9918 22.3007 19.001C22.2728 19.001 22.2543 19.0103 22.2265 19.0196C22.208 19.0196 22.1987 19.0288 22.1802 19.0288C22.1431 19.0381 22.106 19.0474 22.0782 19.0566H22.0689C22.0319 19.0659 21.9948 19.0844 21.9577 19.103C21.9392 19.1123 21.9206 19.1215 21.9021 19.1308C21.8836 19.1401 21.865 19.1493 21.8465 19.1586C21.8279 19.1679 21.8094 19.1864 21.7816 19.1957C21.7723 19.2049 21.7538 19.2142 21.7445 19.2235C21.726 19.242 21.7075 19.2513 21.6889 19.2698C21.6796 19.2791 21.6611 19.2884 21.6518 19.3069C21.6333 19.3254 21.624 19.3347 21.6055 19.3532C21.587 19.3718 21.5777 19.381 21.5592 19.3996C21.5499 19.4089 21.5406 19.4274 21.5221 19.4367C21.5035 19.4552 21.4943 19.4737 21.4757 19.4923C21.4665 19.5015 21.4572 19.5201 21.4479 19.5293C21.4387 19.5479 21.4201 19.5664 21.4108 19.585C21.4016 19.6035 21.3923 19.622 21.383 19.6406C21.3738 19.6591 21.3645 19.6776 21.3552 19.6962C21.3367 19.7333 21.3182 19.7703 21.3089 19.8074L15.6735 35.5551C15.4696 36.2039 15.8032 36.9083 16.4428 37.1401ZM22.4953 23.8949L24.5808 29.7343H20.4006L22.4953 23.8949Z" fill="#019877"/>
</g>
<defs>
<clipPath id="clip0">
<rect width="45" height="45" fill="white"/>
</clipPath>
</defs>
</svg>
