<svg width="231" height="60" viewBox="0 0 231 60" fill="none" xmlns="http://www.w3.org/2000/svg">
<path d="M59.2261 9.76155H70.3228C76.8979 9.76155 80.1905 12.3511 80.1905 17.5252C80.1905 20.0895 79.0626 22.2238 76.8119 23.9233C80.0792 25.3394 81.7129 27.8683 81.7129 31.5099C81.7129 34.2967 80.7519 36.5221 78.8249 38.176C77.8842 38.965 76.8777 39.5163 75.8054 39.8299C74.7332 40.1435 73.2867 40.3002 71.4659 40.3002H69.7412V32.4456H71.2838C72.1942 32.4456 72.8365 32.3292 73.2058 32.0966C73.58 31.8639 73.7672 31.4593 73.7672 30.8777C73.7672 29.8914 73.0085 29.4008 71.4861 29.4008H69.7412V21.2578C71.4102 21.2578 72.2448 20.6863 72.2448 19.5331C72.2448 18.4761 71.4912 17.945 69.984 17.945H68.3048V40.2952H59.2211V9.76155H59.2261Z" fill="white"/>
<path d="M96.9873 17.7729V26.72C96.4056 26.3913 95.8746 26.2294 95.3991 26.2294C93.8767 26.2294 93.1181 27.3927 93.1181 29.7193V40.3001H84.7526V28.1058C84.7526 24.8841 85.6326 22.3147 87.3927 20.3978C89.1528 18.4809 91.4996 17.525 94.4382 17.525C95.0957 17.525 95.9454 17.606 96.9873 17.7729Z" fill="white"/>
<path d="M111.842 31.9347V40.5885C111.154 40.7099 110.527 40.7655 109.961 40.7655C106.602 40.7655 103.81 39.6629 101.57 37.4527C99.3292 35.2424 98.2165 32.4809 98.2165 29.1529C98.2165 25.916 99.3444 23.1747 101.605 20.9189C103.866 18.6682 106.612 17.5403 109.849 17.5403C113.461 17.5403 116.303 18.5974 118.382 20.7065C120.466 22.8156 121.502 25.6985 121.502 29.3552V40.2951H113.137V29.9571C113.137 28.7786 112.849 27.8379 112.277 27.1399C111.7 26.4369 110.932 26.0879 109.961 26.0879C109.081 26.0879 108.322 26.4066 107.68 27.0489C107.037 27.6912 106.719 28.4499 106.719 29.3299C106.719 30.2555 107.012 31.0142 107.594 31.611C108.175 32.2078 108.914 32.5062 109.809 32.5062C110.537 32.5163 111.22 32.3191 111.842 31.9347Z" fill="white"/>
<path d="M134.753 17.9955H126.388V40.3001H134.753V17.9955Z" fill="white"/>
<path d="M130.591 8.03676C131.724 8.03676 132.705 8.43632 133.535 9.23544C134.364 10.0346 134.779 10.9753 134.779 12.0678C134.779 13.2311 134.389 14.187 133.606 14.9305C132.822 15.674 131.82 16.0482 130.596 16.0482C129.372 16.0482 128.371 15.674 127.587 14.9305C126.803 14.187 126.413 13.2311 126.413 12.0678C126.413 10.9804 126.828 10.0346 127.658 9.23544C128.477 8.43632 129.458 8.03676 130.591 8.03676Z" fill="white"/>
<path d="M159.562 40.3001H151.196V27.7063C151.196 26.4216 150.665 25.7843 149.608 25.7843C148.566 25.7843 148.04 26.4267 148.04 27.7063V40.3001H139.675V27.8631C139.675 24.9549 140.636 22.5069 142.563 20.5142C144.485 18.5214 146.842 17.525 149.633 17.525C152.825 17.525 155.384 18.6832 157.306 20.9946C158.813 22.8003 159.567 25.314 159.567 28.5358V40.3001H159.562Z" fill="white"/>
<path d="M178.422 18.3089V27.1246C177.244 27.1246 176.434 27.3471 175.994 27.7821C175.554 28.2221 175.276 29.0921 175.155 30.3869C174.765 34.6961 173.096 37.7408 170.143 39.5161C168.575 40.4417 166.354 40.9019 163.477 40.9019H162.313V32.0407H162.693C164.033 32.0407 164.994 31.7626 165.565 31.2012C166.137 30.6397 166.471 29.6636 166.562 28.2575C166.683 25.9765 166.896 24.3732 167.199 23.4476C167.502 22.5221 168.13 21.6066 169.065 20.6962C170.704 19.098 172.98 18.3039 175.888 18.3039H178.422V18.3089Z" fill="white"/>
<path d="M203.236 9.76155V29.5626C203.236 33.0525 202.194 35.8444 200.115 37.9282C198.036 40.017 195.265 41.0589 191.805 41.0589C188.361 41.0589 185.721 40.0474 183.895 38.0141C182.069 35.986 181.153 33.0677 181.153 29.2693V9.76155H190.237V29.2491C190.237 31.1154 190.9 32.046 192.23 32.046C193.515 32.046 194.152 31.1154 194.152 29.2491V9.76155H203.236Z" fill="white"/>
<path d="M216.006 48.5545H207.641V29.942C207.641 26.528 208.536 23.7462 210.327 21.5967C211.358 20.3575 212.663 19.3763 214.251 18.6429C215.839 17.9096 217.468 17.5454 219.142 17.5454C222.47 17.5454 225.272 18.6632 227.553 20.8987C229.834 23.1342 230.977 25.8806 230.977 29.1327C230.977 32.2938 229.844 35.025 227.579 37.3212C225.313 39.6174 222.627 40.7655 219.527 40.7655C219.021 40.7655 218.272 40.715 217.291 40.6088V31.3935C217.979 31.9448 218.662 32.223 219.35 32.223C220.214 32.223 220.958 31.9044 221.575 31.262C222.192 30.6197 222.506 29.861 222.506 28.981C222.506 28.1009 222.187 27.3524 221.545 26.7303C220.902 26.1132 220.134 25.7997 219.238 25.7997C217.089 25.7997 216.017 27.2816 216.017 30.2505V48.5545H216.006Z" fill="white"/>
<path d="M51.331 23.3668C51.0478 23.5742 51.1287 23.913 51.0427 24.1862C50.5521 25.7591 49.6721 27.0488 48.3267 28.0048C48.0283 28.2172 47.9676 28.3386 48.2053 28.6825C49.7884 30.9888 50.0008 33.452 48.7161 35.9303C47.4264 38.4086 45.2819 39.6679 42.4799 39.7135C40.3708 39.7489 38.2972 39.4049 36.2488 38.9244C36.1527 38.9042 36.0566 38.8941 35.8644 38.8688C36.9215 40.29 37.8723 41.686 38.7271 43.1426C39.6577 44.7206 40.5023 46.3442 41.2711 48.0031C41.8022 49.1462 41.433 50.2993 40.4113 50.7849C39.3593 51.2805 38.2466 50.8203 37.6902 49.6418C35.8239 45.6867 33.5985 41.9692 30.5841 38.7575C29.173 37.2554 27.6253 35.8999 26.0776 34.5343C25.8804 34.3573 25.6831 34.3775 25.4606 34.3927C23.9079 34.4888 22.3501 34.5546 20.7974 34.5293C17.6868 34.4837 15.4715 33.0322 14.1414 30.2403C13.9947 29.9368 13.8429 29.8306 13.5091 29.8357C12.2093 29.8508 10.9347 30.0633 9.65513 30.2302C7.46512 30.5134 5.33581 30.4578 3.42904 29.1478C-0.156909 26.6847 -0.799244 21.9254 2.05839 18.5114C2.60462 17.8589 2.73612 17.343 2.5237 16.5085C1.53238 12.6241 3.98033 8.73979 7.90515 7.87998C8.2339 7.80917 8.37552 7.67261 8.45644 7.36408C9.73605 2.61991 14.8899 0.490599 19.1182 2.9689C19.4115 3.14086 19.538 3.11558 19.7403 2.86269C20.9643 1.37065 22.5524 0.480486 24.4491 0.126444C24.5603 0.106213 24.7019 0.151733 24.7576 0C24.8385 0 24.9194 0 25.0003 0C25.4454 0.101155 25.8905 0.101155 26.3356 0C26.457 0 26.5784 0 26.6997 0C28.3739 0.131502 29.7799 0.849704 31.0342 1.92195C31.2163 2.07874 31.4136 2.22541 31.5451 2.43278C31.8384 2.89809 32.1722 2.95372 32.6578 2.67555C34.0942 1.85619 35.6469 1.57802 37.2755 1.86631C40.2495 2.39232 42.2119 4.12713 43.1779 6.96453C43.3397 7.44501 43.5775 7.67767 44.0681 7.80917C47.7147 8.78531 50.016 12.4572 49.3079 16.1443C49.232 16.5338 49.1865 16.8828 49.5001 17.2115C50.5572 18.3293 51.1742 19.6544 51.331 21.1869C51.331 21.2678 51.331 21.3488 51.331 21.4297C51.2298 21.8748 51.2298 22.3199 51.331 22.7599C51.331 22.9622 51.331 23.1645 51.331 23.3668Z" fill="white"/>
<path d="M51.3311 22.7648C51.1591 22.3197 51.1086 21.8746 51.3311 21.4346C51.3311 21.8746 51.3311 22.3197 51.3311 22.7648Z" fill="#363636"/>
<path d="M0.00505787 47.831C0.0404621 47.831 0.0809247 47.831 0.116329 47.831C0.298408 48.0333 0.303466 48.2356 0.111271 48.4379H0.0556356H0C0.00505775 48.2306 0.00505787 48.0283 0.00505787 47.831Z" fill="#EDEDED"/>
<path d="M0.116516 48.4381C0.116516 48.2358 0.116515 48.0335 0.121573 47.8312C0.268248 47.29 0.607118 46.8803 1.00162 46.4858C4.08179 43.4259 7.15185 40.3558 10.2219 37.2858C11.365 36.1427 12.3816 36.1376 13.5094 37.2655C16.6806 40.4317 19.8569 43.5978 23.0231 46.769C23.9486 47.6946 23.9233 49.04 22.9776 49.7885C22.1936 50.4106 21.1011 50.3398 20.3425 49.5862C18.4306 47.6997 16.5289 45.803 14.6272 43.9114C13.823 43.1123 13.0087 42.3334 12.2298 41.514C11.9365 41.2055 11.7847 41.2207 11.4914 41.5191C8.917 44.1137 6.27686 46.6426 3.7581 49.2928C2.49366 50.618 0.495847 50.2235 0.116516 48.4381Z" fill="white"/>
<path d="M23.6856 57.9264C23.6805 58.9025 23.2961 59.4892 22.5527 59.8382C21.8496 60.1619 20.9595 59.9899 20.3778 59.4134C17.682 56.7429 14.9812 54.0724 12.3006 51.3816C11.9567 51.0377 11.7999 50.9922 11.4357 51.3614C8.81075 54.0218 6.15543 56.6518 3.51022 59.2869C2.95387 59.8433 2.28625 60.0456 1.52253 59.8129C0.784095 59.5904 0.339013 59.0694 0.172107 58.331C0.0304901 57.6937 0.207512 57.1171 0.657652 56.6619C3.9553 53.3592 7.25296 50.0616 10.5658 46.7791C11.3649 45.985 12.4928 46.071 13.3678 46.9409C15.8865 49.4496 18.4002 51.9633 20.9139 54.4719C21.6271 55.1851 22.3402 55.9033 23.0584 56.6114C23.463 57.021 23.7109 57.4864 23.6856 57.9264Z" fill="white"/>
<path d="M31.9801 33.3457C33.1282 32.9816 34.2055 32.663 35.2272 32.1926C36.2033 31.7424 36.6585 30.7562 36.3551 29.8003C36.0111 28.7179 34.8428 28.0907 33.7908 28.5409C29.5878 30.3364 25.142 30.5893 20.6659 30.5943C18.8755 30.5943 17.4796 29.1326 17.4796 27.3827C17.4796 25.6327 18.8806 24.2317 20.6811 24.1912C22.6233 24.1457 24.5503 24.0091 26.3761 23.2404C29.0466 22.1226 30.397 19.6645 29.8407 16.9182C29.2894 14.2123 26.8313 12.1841 24.0951 12.1841C22.9166 12.1841 22.0619 12.9681 22.0164 14.0858C21.9708 15.1834 22.8003 16.0381 23.9838 16.1039C24.3783 16.1241 24.7374 16.2202 25.0662 16.4377C25.7035 16.8625 26.0322 17.4492 25.9917 18.2231C25.9563 18.9514 25.4506 19.3358 24.8639 19.5937C23.5994 20.1501 22.249 20.2259 20.8885 20.231C19.6999 20.231 18.567 20.4586 17.4998 20.9998C15.6385 21.9506 14.4044 23.4174 13.8279 25.4203C13.7216 25.7945 13.58 25.926 13.1805 25.921C11.7997 25.9007 10.4493 26.1637 9.08369 26.3256C8.2795 26.4217 7.46015 26.5228 6.67114 26.3256C4.45079 25.7743 3.53028 23.3112 4.79977 21.3842C5.15887 20.843 5.60396 20.3827 6.11479 19.9731C7.20726 19.093 7.41463 18.0612 6.7723 16.8221C5.97317 15.2845 6.07433 13.8431 7.06565 12.7101C7.21232 12.5432 7.37923 12.3965 7.55625 12.265C8.44135 11.6025 8.57286 11.648 9.10898 12.5786C10.4746 14.9558 12.5634 16.1797 15.2845 16.3264C16.4377 16.3871 17.3531 15.5475 17.3936 14.4551C17.4391 13.2665 16.64 12.432 15.3705 12.3763C14.0605 12.3156 13.0844 11.7188 12.5128 10.5606C11.9615 9.44788 12.0425 8.33012 12.7404 7.28822C13.7368 5.80124 15.7549 5.42191 17.2216 6.42841C17.7122 6.76222 18.0207 7.14154 17.9702 7.81422C17.9044 8.7145 18.4506 9.41248 19.2801 9.70583C20.0691 9.984 20.9087 9.74123 21.46 9.07866C21.7685 8.70439 21.8545 8.26436 21.8849 7.78893C22.0315 5.42696 23.827 3.81354 26.0828 3.99057C27.6102 4.11195 28.9556 5.20443 29.3906 6.76727C29.6536 7.70802 30.0632 8.45656 31.1203 8.61335C32.2178 8.7752 32.9512 8.30989 33.5076 7.35903C34.2612 6.07942 35.6672 5.58376 37.0632 5.99849C38.4591 6.40817 39.4201 7.68273 39.41 9.0989C39.3998 10.5151 38.4136 11.7947 37.0278 12.1689C36.7395 12.2448 36.4309 12.2448 36.1275 12.2802C34.9136 12.4117 34.1347 13.2918 34.2258 14.4247C34.3117 15.5121 35.2171 16.286 36.4158 16.2151C39.2228 16.0482 41.3167 14.7383 42.5963 12.2195C42.8341 11.7542 43.0414 11.7188 43.4612 11.9161C45.105 12.6899 45.808 14.6118 45.0241 16.2556C44.2603 17.864 44.4677 18.6075 45.9395 19.533C47.0573 20.2361 47.6187 21.6674 47.295 22.9622C46.9561 24.3025 45.7372 25.3545 44.3969 25.4101C43.5624 25.4455 42.7582 25.6327 41.949 25.7996C40.993 25.9968 40.4215 26.9072 40.5227 27.9542C40.6188 28.9101 41.4229 29.6182 42.475 29.6637C44.0277 29.7345 45.2618 30.736 45.5147 32.1218C45.894 34.1904 44.3362 35.8696 42.1159 35.7836C39.4555 35.6774 36.876 35.1514 34.3623 34.2916C33.5733 34.0235 32.7944 33.7605 31.9801 33.3457Z" fill="#55B7EC"/>
</svg>
