<svg width="247" height="37" viewBox="0 0 247 37" fill="none" xmlns="http://www.w3.org/2000/svg">
<path d="M21.377 20.4746C21.1777 23.2285 20.1582 25.3965 18.3184 26.9785C16.4902 28.5605 14.0762 29.3516 11.0762 29.3516C7.79492 29.3516 5.21094 28.25 3.32422 26.0469C1.44922 23.832 0.511719 20.7969 0.511719 16.9414V15.377C0.511719 12.916 0.945312 10.748 1.8125 8.87305C2.67969 6.99805 3.91602 5.5625 5.52148 4.56641C7.13867 3.55859 9.01367 3.05469 11.1465 3.05469C14.0996 3.05469 16.4785 3.8457 18.2832 5.42773C20.0879 7.00977 21.1309 9.23047 21.4121 12.0898H16.1387C16.0098 10.4375 15.5469 9.24219 14.75 8.50391C13.9648 7.75391 12.7637 7.37891 11.1465 7.37891C9.38867 7.37891 8.07031 8.01172 7.19141 9.27734C6.32422 10.5312 5.87891 12.4824 5.85547 15.1309V17.0645C5.85547 19.8301 6.27148 21.8516 7.10352 23.1289C7.94727 24.4062 9.27148 25.0449 11.0762 25.0449C12.7051 25.0449 13.918 24.6758 14.7148 23.9375C15.5234 23.1875 15.9863 22.0332 16.1035 20.4746H21.377ZM23.7148 19.3145C23.7148 17.4277 24.0781 15.7461 24.8047 14.2695C25.5312 12.793 26.5742 11.6504 27.9336 10.8418C29.3047 10.0332 30.8926 9.62891 32.6973 9.62891C35.2637 9.62891 37.3555 10.4141 38.9727 11.9844C40.6016 13.5547 41.5098 15.6875 41.6973 18.3828L41.7324 19.6836C41.7324 22.6016 40.918 24.9453 39.2891 26.7148C37.6602 28.4727 35.4746 29.3516 32.7324 29.3516C29.9902 29.3516 27.7988 28.4727 26.1582 26.7148C24.5293 24.957 23.7148 22.5664 23.7148 19.543V19.3145ZM28.7949 19.6836C28.7949 21.4883 29.1348 22.8711 29.8145 23.832C30.4941 24.7812 31.4668 25.2559 32.7324 25.2559C33.9629 25.2559 34.9238 24.7871 35.6152 23.8496C36.3066 22.9004 36.6523 21.3887 36.6523 19.3145C36.6523 17.5449 36.3066 16.1738 35.6152 15.2012C34.9238 14.2285 33.9512 13.7422 32.6973 13.7422C31.4551 13.7422 30.4941 14.2285 29.8145 15.2012C29.1348 16.1621 28.7949 17.6562 28.7949 19.6836ZM44.0703 19.3496C44.0703 16.3848 44.7324 14.0234 46.0566 12.2656C47.3926 10.5078 49.2148 9.62891 51.5234 9.62891C53.375 9.62891 54.9043 10.3203 56.1113 11.7031V2H61.209V29H56.6211L56.375 26.9785C55.1094 28.5605 53.4805 29.3516 51.4883 29.3516C49.25 29.3516 47.4512 28.4727 46.0918 26.7148C44.7441 24.9453 44.0703 22.4902 44.0703 19.3496ZM49.1504 19.7188C49.1504 21.5 49.4609 22.8652 50.082 23.8145C50.7031 24.7637 51.6055 25.2383 52.7891 25.2383C54.3594 25.2383 55.4668 24.5762 56.1113 23.252V15.7461C55.4785 14.4219 54.3828 13.7598 52.8242 13.7598C50.375 13.7598 49.1504 15.7461 49.1504 19.7188ZM73.9004 29.3516C71.1113 29.3516 68.8379 28.4961 67.0801 26.7852C65.334 25.0742 64.4609 22.7949 64.4609 19.9473V19.4551C64.4609 17.5449 64.8301 15.8398 65.5684 14.3398C66.3066 12.8281 67.3496 11.668 68.6973 10.8594C70.0566 10.0391 71.6035 9.62891 73.3379 9.62891C75.9395 9.62891 77.9844 10.4492 79.4727 12.0898C80.9727 13.7305 81.7227 16.0566 81.7227 19.0684V21.1426H69.6113C69.7754 22.3848 70.2676 23.3809 71.0879 24.1309C71.9199 24.8809 72.9688 25.2559 74.2344 25.2559C76.1914 25.2559 77.7207 24.5469 78.8223 23.1289L81.3184 25.9238C80.5566 27.002 79.5254 27.8457 78.2246 28.4551C76.9238 29.0527 75.4824 29.3516 73.9004 29.3516ZM73.3203 13.7422C72.3125 13.7422 71.4922 14.082 70.8594 14.7617C70.2383 15.4414 69.8398 16.4141 69.6641 17.6797H76.7305V17.2754C76.707 16.1504 76.4023 15.2832 75.8164 14.6738C75.2305 14.0527 74.3984 13.7422 73.3203 13.7422ZM95.2754 3.40625H100.549V21.125C100.549 22.7539 100.186 24.1953 99.459 25.4492C98.7441 26.6914 97.7305 27.6523 96.418 28.332C95.1055 29.0117 93.623 29.3516 91.9707 29.3516C89.2637 29.3516 87.1543 28.666 85.6426 27.2949C84.1309 25.9121 83.375 23.9609 83.375 21.4414H88.6836C88.6836 22.6953 88.9473 23.6211 89.4746 24.2188C90.002 24.8164 90.834 25.1152 91.9707 25.1152C92.9785 25.1152 93.7812 24.7695 94.3789 24.0781C94.9766 23.3867 95.2754 22.4023 95.2754 21.125V3.40625ZM116.123 27.0664C114.869 28.5898 113.135 29.3516 110.92 29.3516C108.881 29.3516 107.322 28.7656 106.244 27.5938C105.178 26.4219 104.633 24.7051 104.609 22.4434V9.98047H109.689V22.2676C109.689 24.248 110.592 25.2383 112.396 25.2383C114.119 25.2383 115.303 24.6406 115.947 23.4453V9.98047H121.045V29H116.264L116.123 27.0664ZM124.086 19.3496C124.086 16.3848 124.748 14.0234 126.072 12.2656C127.408 10.5078 129.23 9.62891 131.539 9.62891C133.391 9.62891 134.92 10.3203 136.127 11.7031V2H141.225V29H136.637L136.391 26.9785C135.125 28.5605 133.496 29.3516 131.504 29.3516C129.266 29.3516 127.467 28.4727 126.107 26.7148C124.76 24.9453 124.086 22.4902 124.086 19.3496ZM129.166 19.7188C129.166 21.5 129.477 22.8652 130.098 23.8145C130.719 24.7637 131.621 25.2383 132.805 25.2383C134.375 25.2383 135.482 24.5762 136.127 23.252V15.7461C135.494 14.4219 134.398 13.7598 132.84 13.7598C130.391 13.7598 129.166 15.7461 129.166 19.7188ZM144.424 19.3496C144.424 16.4316 145.115 14.082 146.498 12.3008C147.893 10.5195 149.768 9.62891 152.123 9.62891C154.209 9.62891 155.832 10.3438 156.992 11.7734L157.203 9.98047H161.809V28.3672C161.809 30.0312 161.428 31.4785 160.666 32.709C159.916 33.9395 158.855 34.877 157.484 35.5215C156.113 36.166 154.508 36.4883 152.668 36.4883C151.273 36.4883 149.914 36.207 148.59 35.6445C147.266 35.0938 146.264 34.3789 145.584 33.5L147.834 30.4062C149.1 31.8242 150.635 32.5332 152.439 32.5332C153.787 32.5332 154.836 32.1699 155.586 31.4434C156.336 30.7285 156.711 29.709 156.711 28.3848V27.3652C155.539 28.6895 153.998 29.3516 152.088 29.3516C149.803 29.3516 147.951 28.4609 146.533 26.6797C145.127 24.8867 144.424 22.5137 144.424 19.5605V19.3496ZM149.504 19.7188C149.504 21.4414 149.85 22.7949 150.541 23.7793C151.232 24.752 152.182 25.2383 153.389 25.2383C154.936 25.2383 156.043 24.6582 156.711 23.498V15.5C156.031 14.3398 154.936 13.7598 153.424 13.7598C152.205 13.7598 151.244 14.2578 150.541 15.2539C149.85 16.25 149.504 17.7383 149.504 19.7188ZM174.482 29.3516C171.693 29.3516 169.42 28.4961 167.662 26.7852C165.916 25.0742 165.043 22.7949 165.043 19.9473V19.4551C165.043 17.5449 165.412 15.8398 166.15 14.3398C166.889 12.8281 167.932 11.668 169.279 10.8594C170.639 10.0391 172.186 9.62891 173.92 9.62891C176.521 9.62891 178.566 10.4492 180.055 12.0898C181.555 13.7305 182.305 16.0566 182.305 19.0684V21.1426H170.193C170.357 22.3848 170.85 23.3809 171.67 24.1309C172.502 24.8809 173.551 25.2559 174.816 25.2559C176.773 25.2559 178.303 24.5469 179.404 23.1289L181.9 25.9238C181.139 27.002 180.107 27.8457 178.807 28.4551C177.506 29.0527 176.064 29.3516 174.482 29.3516ZM173.902 13.7422C172.895 13.7422 172.074 14.082 171.441 14.7617C170.82 15.4414 170.422 16.4141 170.246 17.6797H177.312V17.2754C177.289 16.1504 176.984 15.2832 176.398 14.6738C175.812 14.0527 174.98 13.7422 173.902 13.7422ZM194.398 18.5938C194.398 15.9102 194.756 13.3555 195.471 10.9297C196.186 8.50391 197.24 6.35938 198.635 4.49609C200.029 2.62109 201.541 1.32031 203.17 0.59375L204.154 3.33594C202.443 4.60156 201.107 6.55859 200.146 9.20703C199.186 11.8555 198.705 14.9492 198.705 18.4883V19.0332C198.705 22.584 199.18 25.6895 200.129 28.3496C201.078 31.0098 202.42 32.9961 204.154 34.3086L203.17 36.998C201.576 36.2832 200.088 35.0176 198.705 33.2012C197.334 31.3965 196.285 29.3105 195.559 26.9434C194.832 24.5762 194.445 22.1035 194.398 19.5254V18.5938ZM224.545 18.998C224.545 21.6465 224.164 24.1953 223.402 26.6445C222.641 29.0938 221.545 31.2559 220.115 33.1309C218.686 35.0059 217.156 36.2949 215.527 36.998L214.543 34.3086C216.207 33.0547 217.52 31.1211 218.48 28.5078C219.441 25.8945 219.939 22.8887 219.975 19.4902V18.5586C219.975 15.0547 219.494 11.9668 218.533 9.29492C217.584 6.62305 216.254 4.61914 214.543 3.2832L215.527 0.59375C217.121 1.28516 218.621 2.53906 220.027 4.35547C221.445 6.17187 222.541 8.28711 223.314 10.7012C224.1 13.1152 224.51 15.6172 224.545 18.207V18.998ZM245.797 35.3281C241.578 34.1445 239.469 31.4199 239.469 27.1543V23.6562C239.469 21.1836 238.426 19.9473 236.34 19.9473V16.3086C238.379 16.3086 239.422 15.1426 239.469 12.8105V9.08398C239.469 6.91602 239.996 5.16406 241.051 3.82812C242.105 2.49219 243.688 1.52539 245.797 0.927734L246.781 3.75781C245.891 4.08594 245.217 4.66016 244.76 5.48047C244.303 6.28906 244.062 7.41406 244.039 8.85547V12.5469C244.039 15.1953 242.99 17.0527 240.893 18.1191C242.99 19.1973 244.039 21.0664 244.039 23.7266V27.4531C244.098 30.1953 245.012 31.8711 246.781 32.4805L245.797 35.3281Z" fill="#019877"/>
</svg>